<svg xmlns="http://www.w3.org/2000/svg" xmlns:xlink="http://www.w3.org/1999/xlink" width="48" height="48" viewBox="0 0 48 48">
    <defs>
        <path id="rldgmq3tna" d="M0 0L19.556 0 19.556 19.555 0 19.555z"/>
    </defs>
    <g fill="none" fill-rule="evenodd">
        <circle cx="24" cy="24" r="24" fill="#E9EDF0"/>
        <g transform="translate(14.222 14.222)">
            <mask id="473w4z2hwb" fill="#fff">
                <use xlink:href="#rldgmq3tna"/>
            </mask>
            <path fill="#A8ACAF" d="M14.998 3.385c-.649 0-1.174.526-1.174 1.174 0 .648.525 1.173 1.174 1.173.648 0 1.171-.525 1.171-1.173s-.523-1.174-1.171-1.174m-5.22 9.652c-1.8 0-3.26-1.458-3.26-3.26 0-1.8 1.46-3.259 3.26-3.259 1.8 0 3.26 1.46 3.26 3.26 0 1.801-1.46 3.259-3.26 3.259m0-8.28c-2.773 0-5.02 2.248-5.02 5.02 0 2.773 2.247 5.022 5.02 5.022 2.773 0 5.02-2.248 5.02-5.021 0-2.773-2.247-5.021-5.02-5.021m0-4.757C7.123 0 6.79.01 5.748.059 2.195.22.222 2.192.06 5.746.012 6.79 0 7.122 0 9.778c0 2.655.012 2.99.059 4.031.163 3.551 2.133 5.525 5.687 5.688 1.044.047 1.377.058 4.032.058 2.656 0 2.989-.011 4.032-.058 3.547-.163 5.526-2.133 5.686-5.688.048-1.042.06-1.376.06-4.031 0-2.656-.012-2.988-.06-4.031-.159-3.548-2.132-5.525-5.685-5.688C12.767.011 12.434 0 9.778 0m0 1.763c2.61 0 2.92.01 3.951.057 2.65.12 3.888 1.378 4.008 4.008.048 1.031.057 1.34.057 3.951 0 2.612-.01 2.922-.057 3.951-.12 2.628-1.355 3.888-4.008 4.009-1.03.047-1.339.057-3.951.057-2.61 0-2.92-.01-3.951-.057-2.656-.122-3.887-1.385-4.008-4.01-.047-1.03-.057-1.339-.057-3.95s.01-2.92.057-3.951c.121-2.63 1.356-3.888 4.008-4.008 1.032-.047 1.34-.057 3.951-.057" mask="url(#473w4z2hwb)"/>
        </g>
    </g>
</svg>
