<svg xmlns="http://www.w3.org/2000/svg" xmlns:xlink="http://www.w3.org/1999/xlink" width="48" height="48" viewBox="0 0 48 48">
    <defs>
        <path id="xvou2a4xxa" d="M0.488 0.275L7.58 0.275 7.58 10.526 0.488 10.526z"/>
    </defs>
    <g fill="none" fill-rule="evenodd">
        <circle cx="24" cy="24" r="24" fill="#E9EDF0"/>
        <g>
            <path fill="#A8ACAF" d="M7.772 0C8.43.021 9.1.17 9.627.59c.94.71 1.334 1.97 1.31 3.136-.008 2.019.005 4.038-.004 6.053-.713.007-1.425.007-2.136.002-.032-2.017.04-4.039-.041-6.055.005-.667-.335-1.332-.984-1.527-.012-.733-.004-1.465 0-2.199M2.929 5.146c-1.083.397-1.134 2.21-.082 2.686.874.481 2.08-.257 1.997-1.31.095-1.024-1.024-1.81-1.915-1.376M0 9.764C.033 6.582-.036 3.397.04.218.752.24 1.462.232 2.173.24c-.025 1.187.013 2.378-.027 3.566 1.043-1.086 2.885-1.04 3.916.039 1.423 1.42 1.374 4.123-.15 5.446-1.044.936-2.85.991-3.752-.186.005.17.009.506.013.674-.724.007-1.45.015-2.173-.015M15.616 5.107c-1.127.325-1.278 2.16-.236 2.693.866.54 2.163-.188 2.046-1.27.117-.98-.936-1.77-1.81-1.423m-.827-1.912c1.345-.393 2.938-.18 3.977.849 1.387 1.342 1.284 3.973-.257 5.15-1.81 1.42-5.018.958-5.897-1.38-.745-1.83.283-4.149 2.177-4.62" transform="translate(9.778 17.778)"/>
            <g transform="translate(9.778 17.778) translate(20.317 2.731)">
                <mask id="ni8nvxnksb" fill="#fff">
                    <use xlink:href="#xvou2a4xxa"/>
                </mask>
                <path fill="#A8ACAF" d="M3.597 2.352c-1.064.38-1.163 2.142-.165 2.662.86.506 2.115-.149 2.068-1.223.115-1.021-1-1.877-1.903-1.439M1.914.816C2.954.05 4.572.05 5.426 1.122 5.422.97 5.422.662 5.422.51 6.14.503 6.86.503 7.578.51c0 2.102.005 4.204 0 6.306-.009 1.136-.395 2.355-1.308 3.052-.792.623-1.836.692-2.793.647.002-.686 0-1.37-.002-2.057.506-.023 1.093.002 1.49-.387.44-.442.44-1.12.483-1.711-1.074 1.055-2.88 1.085-3.961.025-1.5-1.47-1.273-4.354.427-5.57" mask="url(#ni8nvxnksb)"/>
            </g>
        </g>
    </g>
</svg>
