<svg xmlns="http://www.w3.org/2000/svg" xmlns:xlink="http://www.w3.org/1999/xlink" width="22" height="22" viewBox="0 0 22 22">
    <defs>
        <linearGradient id="prefix__a" x1="50%" x2="50%" y1="0%" y2="100%">
            <stop offset="0%" stop-color="#4BED8B"/>
            <stop offset="100%" stop-color="#25D663"/>
        </linearGradient>
        <path id="prefix__b" d="M0 0L22 0 22 22 0 22z"/>
    </defs>
    <g fill="none" fill-rule="evenodd">
        <circle cx="11" cy="11" r="10.083" fill="url(#prefix__a)"/>
        <mask id="prefix__c" fill="#fff">
            <use xlink:href="#prefix__b"/>
        </mask>
        <path fill="#000" d="M14.284 16.448c-.278.062-.593.07-.938-.003-.828-.174-1.596-.259-2.349-.259-.75 0-1.52.085-2.348.259-1.018.213-1.782-.22-2.067-.93-.783-1.953 1.307-3.637 4.414-3.637 1.107 0 2.058.202 2.807.54-.267.478-.403.835-.472 1.455-1.647-.801-5.829-.497-5.273 1.025.127.346 1.48-.256 2.938-.256.973 0 1.87.261 2.414.342.148.58.38 1.024.873 1.464M11 20.167c-5.054 0-9.167-4.113-9.167-9.167 0-5.055 4.112-9.167 9.167-9.167S20.167 5.945 20.167 11c0 5.054-4.113 9.167-9.167 9.167M11 0C4.925 0 0 4.925 0 11c0 6.076 4.925 11 11 11s11-4.924 11-11c0-6.075-4.925-11-11-11m-.917 9.168l-.692.464s-.46-.869-1.6-.869c-1.107 0-1.6.87-1.6.87L5.5 9.167c.258-.685 1.105-1.835 2.29-1.835 1.188 0 2.034 1.15 2.293 1.835m6.417 0l-.692.464s-.461-.869-1.6-.869c-1.107 0-1.6.87-1.6.87l-.691-.465c.257-.685 1.104-1.835 2.29-1.835 1.188 0 2.034 1.15 2.293 1.835m.479 3.793c-.374.392-.875.057-.524-.374.208-.257.433-.592.612-.95.117.309.215 1.005-.088 1.324m-2.15.476c-.903 2.273 2.205 3.435 3.22 1.284.854-1.809-.416-3.873-1.17-4.888.156 1.195-1.487 2.255-2.05 3.604z" mask="url(#prefix__c)"/>
    </g>
</svg>
