<svg xmlns="http://www.w3.org/2000/svg" xmlns:xlink="http://www.w3.org/1999/xlink" width="24" height="24" viewBox="0 0 24 24">
    <defs>
        <path id="oth2769sua" d="M0 0L24 0 24 24 0 24z"/>
    </defs>
    <g fill="none" fill-rule="evenodd">
        <mask id="szmd0sok0b" fill="#fff">
            <use xlink:href="#oth2769sua"/>
        </mask>
        <path fill="#25D663" d="M13.726 0c1.104 0 2 .896 2 1.999 0 1.103-.896 1.998-2 1.998-1.103 0-2-.895-2-1.998S12.624 0 13.727 0zm6.622 2.84c0 1.004.818 1.822 1.825 1.822 1.006 0 1.824-.818 1.824-1.823 0-1.006-.818-1.824-1.824-1.824-1.007 0-1.825.818-1.825 1.824zm-7.84 8.668c.276-.009.491-.24.483-.516-.057-1.626.36-1.936 1.377-2.05 1.688-.19 1.785-1.311 1.841-1.98.053-.637.072-.851.774-.903.63-.046 1.33-.16 1.76-.659.46-.537.465-1.357.402-2.162-.022-.276-.267-.478-.537-.459-.276.021-.482.262-.46.537.062.786.012 1.229-.164 1.433-.15.174-.481.27-1.074.314-1.553.114-1.645 1.178-1.698 1.814-.056.668-.082.973-.956 1.07-2.074.235-2.314 1.619-2.264 3.079.008.27.23.482.5.482h.015zm7.307-3.621l-1.697.014.937 1.414-.511 1.617 1.634-.455 1.381.985.073-1.695 1.365-1.008-1.59-.591-.538-1.61-1.054 1.329zm-3.758 6.752c2.018-1.433 4.462-1.639 7.272-.612.327.119.671-.123.671-.47 0-.203-.125-.395-.328-.47-3.135-1.146-5.892-.9-8.195.738-.224.16-.276.471-.116.697.097.136.251.21.406.21.102 0 .202-.03.29-.093zM9.554 8.55c1.538-2.962 1.644-5.727.314-8.217-.091-.17-.264-.265-.443-.265-.37 0-.62.398-.44.735 1.166 2.183 1.058 4.634-.32 7.286-.126.244-.031.546.214.673.074.038.153.057.23.057.18 0 .355-.099.445-.27zm2.626-.71l1.111-2.386c.118-.25.008-.547-.242-.663-.25-.116-.548-.01-.665.242l-1.11 2.386c-.116.25-.007.547.243.664.068.03.14.047.21.047.189 0 .368-.107.453-.29zm2.992 4.31l2.2-1.444c.232-.152.296-.462.144-.693-.151-.232-.463-.294-.691-.143l-2.202 1.444c-.23.151-.294.461-.143.692.096.147.256.226.418.226.095 0 .19-.026.274-.082zm.826 5l-6.452-5.733 2.784 7.304 3.668-1.571zM8.477 20.37l2.934-1.257-3.482-9.135-2.216-1.967-.872 2.441 3.636 9.918zm-6.248-2.607L0 24l3.903-1.67-1.674-4.567zm2.594 4.171l2.734-1.17-3.242-8.84-1.56 4.368 2.068 5.642z" mask="url(#szmd0sok0b)"/>
    </g>
</svg>
